<svg xmlns="http://www.w3.org/2000/svg" xmlns:xlink="http://www.w3.org/1999/xlink" viewBox="2069 462 193 193">
  <defs>
    <style>
      .cls-1 {
        fill: #fff;
        stroke: #95989a;
      }

      .cls-2 {
        stroke: none;
      }

      .cls-3 {
        fill: none;
      }

      .cls-4 {
        filter: url(#Path_2);
      }

      .cls-5 {
        filter: url(#Rectangle_103);
      }

      .cls-6 {
        filter: url(#Ellipse_1);
      }
    </style>
    <filter id="Ellipse_1" x="2093.5" y="499" width="36" height="37.5" filterUnits="userSpaceOnUse">
      <feOffset dy="3" input="SourceAlpha"/>
      <feGaussianBlur stdDeviation="0.5" result="blur"/>
      <feFlood flood-opacity="0.161"/>
      <feComposite operator="in" in2="blur"/>
      <feComposite in="SourceGraphic"/>
    </filter>
    <filter id="Rectangle_103" x="2095.5" y="546" width="32" height="97.5" filterUnits="userSpaceOnUse">
      <feOffset dy="3" input="SourceAlpha"/>
      <feGaussianBlur stdDeviation="0.5" result="blur-2"/>
      <feFlood flood-opacity="0.161"/>
      <feComposite operator="in" in2="blur-2"/>
      <feComposite in="SourceGraphic"/>
    </filter>
    <filter id="Path_2" x="2147.999" y="543.764" width="93.135" height="99.866" filterUnits="userSpaceOnUse">
      <feOffset dy="3" input="SourceAlpha"/>
      <feGaussianBlur stdDeviation="0.5" result="blur-3"/>
      <feFlood flood-opacity="0.161"/>
      <feComposite operator="in" in2="blur-3"/>
      <feComposite in="SourceGraphic"/>
    </filter>
  </defs>
  <g id="Group_2" data-name="Group 2" transform="translate(1990)">
    <g id="Rectangle_102" data-name="Rectangle 102" class="cls-1" transform="translate(79 462)">
      <rect class="cls-2" width="193" height="193" rx="14"/>
      <rect class="cls-3" x="0.5" y="0.5" width="192" height="192" rx="13.5"/>
    </g>
    <g class="cls-6" transform="matrix(1, 0, 0, 1, -1990, 0)">
      <g id="Ellipse_1-2" data-name="Ellipse 1" class="cls-1" transform="translate(2095 499)">
        <circle class="cls-2" cx="16.5" cy="16.5" r="16.5"/>
        <circle class="cls-3" cx="16.5" cy="16.5" r="16"/>
      </g>
    </g>
    <g class="cls-5" transform="matrix(1, 0, 0, 1, -1990, 0)">
      <g id="Rectangle_103-2" data-name="Rectangle 103" class="cls-1" transform="translate(2097 546)">
        <rect class="cls-2" width="29" height="93"/>
        <rect class="cls-3" x="0.5" y="0.5" width="28" height="92"/>
      </g>
    </g>
    <g class="cls-4" transform="matrix(1, 0, 0, 1, -1990, 0)">
      <path id="Path_2-2" data-name="Path 2" class="cls-1" d="M2140,309.788h26.781v12.763s11.142-15.154,24.985-15.284c6.7-.063,14.079.605,20.264,3.6a31.539,31.539,0,0,1,12.629,11.68c3.7,6.577,4.046,9.734,4.332,19.665s0,59.414,0,59.414h-28.578V349.705s-1.732-13.488-8.647-16.19-12.434-1.745-18.214,3.159-4.968,12.406-4.9,16.459,0,48.5,0,48.5H2140Z" transform="translate(10 237)"/>
    </g>
  </g>
</svg>
